<svg width="35" height="34" viewBox="0 0 35 34" fill="none" xmlns="http://www.w3.org/2000/svg">
<circle cx="15.7258" cy="19.2258" r="12.162" stroke="white" stroke-width="1.12761"/>
<path d="M24.5109 11.5187C24.7313 11.7571 25.0326 12.0944 25.3797 12.5196C25.7325 12.9518 25.9804 13.3611 26.1394 13.6603C26.1676 13.7134 26.1897 13.7647 26.2123 13.8101L15.4494 24.6712C15.3941 24.6461 15.3322 24.6204 15.2672 24.5892C14.9557 24.4397 14.5583 24.2268 14.1936 23.9668C13.8377 23.7131 13.5204 23.4648 13.2808 23.271L24.5109 11.5187Z" stroke="white" stroke-width="1.12761"/>
<path d="M26.2148 13.9381C26.3364 14.1787 26.4982 14.5208 26.7033 15.0057C27.0053 15.72 27.0929 16.3735 27.1051 16.8461C27.1112 17.0822 27.0984 17.2722 27.0848 17.3989C27.0844 17.403 27.0834 17.4068 27.0829 17.4107L15.4215 28.2365C15.3597 28.2094 15.2894 28.1803 15.2149 28.1452C14.9006 27.9966 14.5028 27.7848 14.1437 27.5232C13.7928 27.2676 13.4818 27.0165 13.2465 26.8197L26.2148 13.9381Z" stroke="white" stroke-width="1.12761"/>
<path d="M26.8011 3.08471L2.87988 28.9391C1.99385 29.9056 0.98687 30.9231 2.15493 32.4025C3.32299 33.8818 4.81285 32.8052 5.77945 31.7581C5.77945 31.7581 29.6738 4.74926 30.0229 5.66208C30.3719 6.5749 31.4889 7.90118 32.842 6.87023C34.5334 5.58154 33.5668 3.40697 31.4726 2.03773C29.7973 0.94234 28.1704 1.63497 26.8011 3.08471Z" stroke="white" stroke-width="1.12761"/>
<path d="M20.6209 29.8462C20.2473 30.0412 19.749 30.2744 19.1882 30.4584C18.5921 30.6538 17.8691 30.7963 17.2817 30.8898C16.9912 30.9361 16.7391 30.9691 16.5603 30.9911C16.5431 30.9932 16.5259 30.9947 16.5101 30.9966L3.53908 20.2143C3.53875 20.2102 3.53823 20.2061 3.53789 20.2019C3.52543 20.0489 3.51075 19.8285 3.50238 19.565C3.48555 19.0346 3.4949 18.3415 3.59335 17.6666C3.69136 16.9948 3.84548 16.3732 3.97838 15.912L20.6209 29.8462Z" stroke="white" stroke-width="1.12761"/>
<path d="M23.2518 27.8562C23.2366 27.8754 23.2221 27.8964 23.2056 27.9168C22.9723 28.206 22.6144 28.6035 22.1234 29.0218C21.6817 29.3981 21.0607 29.676 20.5158 29.863C20.2525 29.9533 20.0185 30.0183 19.8501 30.0608L3.98833 15.8629C4.01451 15.7726 4.04462 15.6652 4.08363 15.5478C4.20998 15.1677 4.39928 14.6871 4.65494 14.2519C4.92592 13.7906 5.19735 13.3846 5.40237 13.0923L23.2518 27.8562Z" stroke="white" stroke-width="1.12761"/>
<path d="M9.86453 8.9401C10.1917 8.72447 10.676 8.43465 11.3229 8.13158C12.019 7.8055 12.4593 7.62717 12.7185 7.53158C12.7399 7.5237 12.7606 7.51831 12.7795 7.51156L18.244 12.0772C18.0592 12.3173 17.7814 12.6681 17.385 13.1384C16.9603 13.6423 16.5043 14.1044 16.1522 14.4421C16.0752 14.516 16.0021 14.5821 15.937 14.6427L9.86453 8.9401Z" stroke="white" stroke-width="1.12761"/>
</svg>
